<svg width="105" height="16" viewBox="0 0 105 16" fill="none" xmlns="http://www.w3.org/2000/svg">
<path d="M88.6211 0.996094C89.0378 1.00911 89.4023 1.01562 89.7148 1.01562C90.0273 1.0026 90.2812 0.996094 90.4766 0.996094H91.043C91.1862 0.983073 91.362 0.976562 91.5703 0.976562C91.7526 0.976562 91.974 0.976562 92.2344 0.976562C92.4948 0.976562 92.7943 0.983073 93.1328 0.996094C93.237 1.36068 93.3542 1.71875 93.4844 2.07031C93.6276 2.40885 93.7513 2.71484 93.8555 2.98828C93.9857 3.3138 94.1159 3.61979 94.2461 3.90625C94.3763 4.19271 94.5326 4.53776 94.7148 4.94141C94.8711 5.27995 95.0599 5.69661 95.2812 6.19141C95.5026 6.67318 95.763 7.22656 96.0625 7.85156C96.2057 7.44792 96.3359 7.07682 96.4531 6.73828C96.5833 6.39974 96.694 6.10677 96.7852 5.85938C96.8893 5.57292 96.974 5.3125 97.0391 5.07812C97.1042 4.84375 97.1758 4.55729 97.2539 4.21875C97.319 3.93229 97.3906 3.58724 97.4688 3.18359C97.5599 2.77995 97.651 2.3112 97.7422 1.77734C98.1198 1.77734 98.4583 1.77734 98.7578 1.77734C99.0573 1.77734 99.3177 1.77083 99.5391 1.75781C99.7865 1.75781 100.008 1.7513 100.203 1.73828C100.411 1.73828 100.691 1.72526 101.043 1.69922C101.342 1.67318 101.74 1.65365 102.234 1.64062C102.742 1.61458 103.367 1.58203 104.109 1.54297C103.836 1.73828 103.615 1.93359 103.445 2.12891C103.289 2.3112 103.165 2.47396 103.074 2.61719C102.97 2.78646 102.905 2.94922 102.879 3.10547C102.853 3.23568 102.827 3.53516 102.801 4.00391C102.788 4.47266 102.768 5.03255 102.742 5.68359C102.729 6.32161 102.716 7.00521 102.703 7.73438C102.703 8.46354 102.71 9.15365 102.723 9.80469C102.736 10.4557 102.755 11.0221 102.781 11.5039C102.82 11.9727 102.872 12.2721 102.938 12.4023C103.029 12.5586 103.152 12.7409 103.309 12.9492C103.452 13.1315 103.634 13.3398 103.855 13.5742C104.09 13.8086 104.396 14.069 104.773 14.3555C104.174 14.3815 103.673 14.401 103.27 14.4141C102.879 14.4271 102.553 14.4401 102.293 14.4531C101.993 14.4661 101.753 14.4727 101.57 14.4727C101.375 14.4727 101.108 14.4792 100.77 14.4922C100.47 14.5052 100.073 14.5247 99.5781 14.5508C99.0833 14.5638 98.4453 14.5898 97.6641 14.6289C97.8464 14.4206 98.0156 14.2122 98.1719 14.0039C98.3281 13.7956 98.4583 13.6068 98.5625 13.4375C98.6927 13.2422 98.8034 13.0534 98.8945 12.8711C98.9857 12.6237 99.0573 12.1745 99.1094 11.5234C99.1615 10.9635 99.2005 10.1628 99.2266 9.12109C99.2526 8.06641 99.2526 6.65365 99.2266 4.88281C98.9792 5.28646 98.7578 5.6901 98.5625 6.09375C98.3802 6.48438 98.2174 6.84245 98.0742 7.16797C97.918 7.54557 97.7747 7.91016 97.6445 8.26172C97.5143 8.6263 97.3776 9.02995 97.2344 9.47266C97.1042 9.85026 96.9479 10.2995 96.7656 10.8203C96.5964 11.3411 96.401 11.9141 96.1797 12.5391L95.4375 12.5781C95.3333 12.0573 95.2292 11.5885 95.125 11.1719C95.0208 10.7422 94.9167 10.3776 94.8125 10.0781C94.6953 9.72656 94.5781 9.41406 94.4609 9.14062C94.3307 8.86719 94.1875 8.5612 94.0312 8.22266C93.888 7.9362 93.7122 7.59766 93.5039 7.20703C93.3086 6.81641 93.0807 6.38021 92.8203 5.89844C92.6901 7.22656 92.612 8.30729 92.5859 9.14062C92.5599 9.96094 92.5599 10.599 92.5859 11.0547C92.612 11.6016 92.651 11.9987 92.7031 12.2461C92.7812 12.4674 92.9049 12.7148 93.0742 12.9883C93.2174 13.2227 93.4128 13.5026 93.6602 13.8281C93.9206 14.1406 94.2526 14.4922 94.6562 14.8828C94.3698 14.8828 94.0703 14.8828 93.7578 14.8828C93.4453 14.8828 93.1589 14.8893 92.8984 14.9023C92.5859 14.9154 92.2799 14.9219 91.9805 14.9219C91.668 14.9349 91.3034 14.9544 90.8867 14.9805C90.5221 15.0065 90.0859 15.0326 89.5781 15.0586C89.0703 15.0846 88.4844 15.1302 87.8203 15.1953C88.1068 15.013 88.3411 14.8372 88.5234 14.668C88.7057 14.4857 88.849 14.3229 88.9531 14.1797C89.0833 14.0104 89.181 13.8411 89.2461 13.6719C89.2852 13.5677 89.3177 13.3398 89.3438 12.9883C89.3828 12.6367 89.4154 12.207 89.4414 11.6992C89.4805 11.1914 89.5065 10.625 89.5195 10C89.5456 9.375 89.5651 8.74349 89.5781 8.10547C89.6042 7.45443 89.6237 6.82292 89.6367 6.21094C89.6497 5.58594 89.6562 5.02604 89.6562 4.53125C89.6693 4.02344 89.6758 3.60026 89.6758 3.26172C89.6758 2.92318 89.6758 2.70833 89.6758 2.61719C89.6367 2.42188 89.5781 2.22656 89.5 2.03125C89.4349 1.86198 89.3307 1.6862 89.1875 1.50391C89.0443 1.32161 88.8555 1.15234 88.6211 0.996094Z" fill="white"/>
<path d="M78.8164 1.77734C79.4674 1.81641 80.0143 1.84896 80.457 1.875C80.9128 1.88802 81.2904 1.90104 81.5898 1.91406C81.9284 1.92708 82.2148 1.92708 82.4492 1.91406C82.6836 1.90104 83.0026 1.86849 83.4062 1.81641C83.7448 1.77734 84.194 1.71875 84.7539 1.64062C85.3268 1.54948 86.0365 1.43229 86.8828 1.28906C86.5833 1.58854 86.349 1.86198 86.1797 2.10938C86.0234 2.34375 85.8997 2.54557 85.8086 2.71484C85.7044 2.92318 85.6328 3.09896 85.5938 3.24219C85.5677 3.3724 85.5938 3.69792 85.6719 4.21875C85.75 4.73958 85.8607 5.35807 86.0039 6.07422C86.1471 6.77734 86.3034 7.53255 86.4727 8.33984C86.6419 9.13411 86.8112 9.88281 86.9805 10.5859C87.1497 11.276 87.2995 11.8685 87.4297 12.3633C87.5729 12.8451 87.6771 13.1315 87.7422 13.2227C87.9375 13.4961 88.0612 13.6784 88.1133 13.7695C88.1654 13.8477 88.2565 13.9193 88.3867 13.9844C88.4388 14.0104 88.5234 14.0495 88.6406 14.1016C88.7448 14.1536 88.8815 14.2188 89.0508 14.2969C89.2331 14.375 89.4609 14.4661 89.7344 14.5703C89.2266 14.5964 88.7904 14.6159 88.4258 14.6289C88.0612 14.6289 87.7617 14.6354 87.5273 14.6484C87.2539 14.6615 87.0195 14.6745 86.8242 14.6875C86.6289 14.6875 86.3945 14.7005 86.1211 14.7266C85.8867 14.7526 85.5807 14.7786 85.2031 14.8047C84.8385 14.8307 84.4089 14.8568 83.9141 14.8828C84.1745 14.7005 84.3828 14.5378 84.5391 14.3945C84.7083 14.2383 84.8385 14.1081 84.9297 14.0039C85.0339 13.8737 85.1055 13.7565 85.1445 13.6523C85.1706 13.5352 85.1901 13.3594 85.2031 13.125C85.2161 12.9167 85.2161 12.6432 85.2031 12.3047C85.1901 11.9531 85.1576 11.4974 85.1055 10.9375L79.9688 11.4648C79.8385 11.6862 79.7409 11.8815 79.6758 12.0508C79.6107 12.207 79.5651 12.3438 79.5391 12.4609C79.5 12.6042 79.487 12.7214 79.5 12.8125C79.526 12.9167 79.5716 13.0404 79.6367 13.1836C79.7018 13.3138 79.793 13.4701 79.9102 13.6523C80.0404 13.8216 80.2292 14.0234 80.4766 14.2578C80.151 14.2448 79.819 14.2383 79.4805 14.2383C79.1419 14.2383 78.8294 14.2448 78.543 14.2578C78.2044 14.2708 77.8724 14.2839 77.5469 14.2969C77.2214 14.3099 76.8503 14.3294 76.4336 14.3555C76.082 14.3815 75.6719 14.4141 75.2031 14.4531C74.7214 14.4792 74.207 14.5182 73.6602 14.5703C73.9987 14.4141 74.2852 14.2578 74.5195 14.1016C74.7539 13.9323 74.9492 13.776 75.1055 13.6328C75.2878 13.4766 75.444 13.3268 75.5742 13.1836C75.6654 13.0534 75.8477 12.7539 76.1211 12.2852C76.3945 11.8034 76.7005 11.237 77.0391 10.5859C77.3906 9.9349 77.7552 9.23828 78.1328 8.49609C78.5234 7.75391 78.875 7.05729 79.1875 6.40625C79.5 5.74219 79.7539 5.16927 79.9492 4.6875C80.1445 4.20573 80.2422 3.89323 80.2422 3.75C80.2161 3.58073 80.151 3.39193 80.0469 3.18359C79.9557 3.0013 79.8125 2.79297 79.6172 2.55859C79.4349 2.32422 79.168 2.0638 78.8164 1.77734ZM84.8711 9.49219C84.793 9.03646 84.7214 8.64583 84.6562 8.32031C84.5911 7.98177 84.5391 7.70182 84.5 7.48047C84.4479 7.22005 84.4089 6.99219 84.3828 6.79688C84.3438 6.61458 84.2982 6.38021 84.2461 6.09375C84.194 5.84635 84.1289 5.54036 84.0508 5.17578C83.9857 4.79818 83.901 4.34896 83.7969 3.82812C83.0547 5.3125 82.4753 6.46484 82.0586 7.28516C81.6549 8.09245 81.362 8.6849 81.1797 9.0625C80.9583 9.50521 80.8346 9.76562 80.8086 9.84375L84.8711 9.49219Z" fill="white"/>
<path d="M62.9375 0.742166C63.3542 0.80727 63.7318 0.865864 64.0703 0.917948C64.4089 0.95701 64.7018 0.989562 64.9492 1.0156C65.2357 1.05467 65.4896 1.08722 65.7109 1.11326C65.9844 1.15232 66.3945 1.10675 66.9414 0.976541C67.4883 0.833312 68.0872 0.703104 68.7383 0.585916C69.4023 0.455708 70.0794 0.384093 70.7695 0.371073C71.4596 0.345031 72.0911 0.468729 72.6641 0.742166C73.237 1.0156 73.7057 1.28904 74.0703 1.56248C74.4349 1.83592 74.7214 2.12889 74.9297 2.44139C75.151 2.74086 75.3073 3.05987 75.3984 3.39842C75.4896 3.73696 75.5417 4.10805 75.5547 4.5117C75.5417 5.11066 75.3984 5.69008 75.125 6.24998C75.0078 6.48435 74.8516 6.73175 74.6562 6.99217C74.474 7.23956 74.2461 7.48045 73.9727 7.71482C73.6992 7.9492 73.3737 8.17055 72.9961 8.37889C72.6315 8.58722 72.2018 8.76951 71.707 8.92576C72.1888 9.06899 72.5859 9.23826 72.8984 9.43357C73.224 9.62889 73.4844 9.81118 73.6797 9.98045C73.9141 10.1888 74.0898 10.3906 74.207 10.5859C74.3503 10.8594 74.4479 11.0937 74.5 11.289C74.5521 11.4844 74.5846 11.6732 74.5977 11.8554C74.6237 12.0247 74.6562 12.2005 74.6953 12.3828C74.7344 12.5651 74.819 12.7734 74.9492 13.0078C75.0534 13.1901 75.1771 13.3789 75.3203 13.5742C75.4505 13.7435 75.6003 13.9258 75.7695 14.1211C75.9518 14.3164 76.1732 14.5052 76.4336 14.6875C76.069 14.7005 75.7305 14.707 75.418 14.707C75.1185 14.707 74.8581 14.707 74.6367 14.707C74.3763 14.707 74.1289 14.7005 73.8945 14.6875C73.6602 14.6745 73.3672 14.6679 73.0156 14.6679C72.7161 14.6679 72.332 14.6679 71.8633 14.6679C71.4076 14.6679 70.8542 14.6745 70.2031 14.6875C70.4896 14.4661 70.724 14.2448 70.9062 14.0234C71.0885 13.8021 71.2318 13.6002 71.3359 13.4179C71.4531 13.2096 71.5378 13.0078 71.5898 12.8125C71.6549 12.4609 71.6615 12.0963 71.6094 11.7187C71.5703 11.3932 71.4661 11.0351 71.2969 10.6445C71.1276 10.2409 70.8542 9.83722 70.4766 9.43357C70.099 9.49868 69.7799 9.55076 69.5195 9.58982C69.2721 9.61586 69.0573 9.64191 68.875 9.66795C68.6667 9.69399 68.4974 9.71352 68.3672 9.72654C68.25 9.73956 68.1198 9.75258 67.9766 9.7656C67.8594 9.77862 67.7292 9.79816 67.5859 9.8242C67.4557 9.83722 67.332 9.85675 67.2148 9.88279C67.1888 10.4427 67.1888 10.931 67.2148 11.3476C67.2409 11.7513 67.2734 12.0898 67.3125 12.3633C67.3646 12.6888 67.4232 12.9687 67.4883 13.2031C67.5534 13.4375 67.6445 13.6653 67.7617 13.8867C67.8529 14.069 67.9701 14.2643 68.1133 14.4726C68.2565 14.6679 68.4193 14.8307 68.6016 14.9609C68.263 14.9609 67.9375 14.9609 67.625 14.9609C67.3255 14.9609 67.0521 14.9544 66.8047 14.9414C66.5182 14.9414 66.2448 14.9349 65.9844 14.9219C65.724 14.9088 65.431 14.9023 65.1055 14.9023C64.832 14.9023 64.5065 14.9023 64.1289 14.9023C63.7643 14.9023 63.3672 14.9088 62.9375 14.9219C63.276 14.5703 63.543 14.2708 63.7383 14.0234C63.9336 13.776 64.0833 13.5677 64.1875 13.3984C64.3047 13.2161 64.3763 13.0599 64.4023 12.9297C64.4284 12.7213 64.4479 12.3502 64.4609 11.8164C64.487 11.2695 64.5065 10.6445 64.5195 9.94139C64.5326 9.23826 64.5391 8.50258 64.5391 7.73435C64.5391 6.96612 64.5326 6.24998 64.5195 5.58592C64.5065 4.90883 64.4935 4.32941 64.4805 3.84764C64.4674 3.36586 64.4544 3.05987 64.4414 2.92967C64.4023 2.69529 64.3177 2.46092 64.1875 2.22654C64.0833 2.01821 63.9336 1.78383 63.7383 1.52342C63.543 1.263 63.276 1.00258 62.9375 0.742166ZM70.3203 7.61717C70.4505 7.53904 70.5612 7.46092 70.6523 7.38279C70.7435 7.30467 70.8216 7.18097 70.8867 7.0117C70.9518 6.82941 71.0039 6.5755 71.043 6.24998C71.0951 5.92446 71.1536 5.48175 71.2188 4.92185C71.2708 4.36196 71.2318 3.89972 71.1016 3.53514C70.9844 3.17055 70.8216 2.88409 70.6133 2.67576C70.418 2.45441 70.1966 2.30467 69.9492 2.22654C69.7148 2.1354 69.5065 2.08982 69.3242 2.08982C68.9596 2.08982 68.6016 2.2005 68.25 2.42185C67.8984 2.64321 67.6315 2.94269 67.4492 3.32029C67.3841 3.48956 67.3255 3.76951 67.2734 4.16014C67.2344 4.49868 67.2083 4.96743 67.1953 5.56638C67.1823 6.16534 67.2018 6.9531 67.2539 7.92967C67.7487 8.00779 68.1849 8.04034 68.5625 8.02732C68.9401 8.00128 69.2591 7.95571 69.5195 7.8906C69.832 7.8255 70.099 7.73435 70.3203 7.61717Z" fill="white"/>
<path d="M58.4258 0.898486C59.2591 0.885465 59.9427 1.03521 60.4766 1.34771C61.0234 1.66021 61.4662 2.0313 61.8047 2.46099C62.1432 2.89067 62.4037 3.32687 62.5859 3.76958C62.7682 4.19927 62.9115 4.53781 63.0156 4.78521C63.0417 4.85031 63.0938 4.93494 63.1719 5.03911C63.237 5.13026 63.3281 5.24093 63.4453 5.37114C63.5755 5.48833 63.7383 5.62505 63.9336 5.7813C63.53 5.79432 63.1719 5.80734 62.8594 5.82036C62.5469 5.82036 62.28 5.82687 62.0586 5.83989C61.8112 5.85291 61.5899 5.86593 61.3945 5.87895C61.1992 5.89198 60.9583 5.91151 60.6719 5.93755C60.4115 5.96359 60.0925 5.98963 59.7149 6.01567C59.3373 6.04172 58.875 6.08078 58.3281 6.13286C58.6537 5.74224 58.9076 5.39718 59.0899 5.0977C59.2852 4.7852 59.4284 4.51177 59.5195 4.27739C59.6237 4.03 59.6823 3.81515 59.6953 3.63286C59.7214 3.45057 59.7149 3.29432 59.6758 3.16411C59.5977 2.86463 59.3958 2.64979 59.0703 2.51958C58.1328 2.25916 57.3125 2.4675 56.6094 3.14458C55.9193 3.80864 55.4245 4.90239 55.125 6.42583C54.9818 7.18104 54.8451 7.9688 54.7149 8.78911C54.5977 9.5964 54.5521 10.3386 54.5781 11.0157C54.6042 11.6797 54.7344 12.2201 54.9688 12.6368C55.2031 13.0534 55.6068 13.2487 56.1797 13.2227C56.7396 13.1967 57.2149 13.1055 57.6055 12.9493C57.9961 12.78 58.3086 12.5847 58.543 12.3633C58.7774 12.129 58.9401 11.8816 59.0313 11.6211C59.1354 11.3477 59.1745 11.0938 59.1484 10.8594C59.0964 10.6771 58.9596 10.4818 58.7383 10.2735C58.543 10.0912 58.25 9.88937 57.8594 9.66802C57.4688 9.43364 56.9089 9.19276 56.1797 8.94536C56.8698 8.9063 57.4362 8.88026 57.8789 8.86724C58.3346 8.84119 58.6927 8.81515 58.9531 8.78911C59.2656 8.76307 59.5065 8.74354 59.6758 8.73052C59.832 8.7175 60.0599 8.70448 60.3594 8.69145C60.6198 8.67843 60.9518 8.67192 61.3555 8.67192C61.7721 8.67192 62.293 8.66541 62.918 8.65239C62.6836 8.88677 62.5013 9.10161 62.3711 9.29692C62.306 9.40109 62.2474 9.49224 62.1953 9.57036C62.1432 9.70057 62.1237 9.9675 62.1367 10.3711C62.1367 10.7097 62.1628 11.211 62.2149 11.875C62.2669 12.5261 62.3646 13.418 62.5078 14.5508L59.9102 14.9024L60.0274 12.2657C59.7279 12.9818 59.3503 13.5157 58.8945 13.8672C58.4518 14.2188 58.0287 14.4662 57.625 14.6094C57.1432 14.7787 56.6419 14.8568 56.1211 14.8438C55.444 14.7787 54.7669 14.6224 54.0899 14.375C53.4128 14.1277 52.8138 13.75 52.293 13.2422C51.7721 12.7214 51.3685 12.0508 51.082 11.2305C50.8086 10.4102 50.724 9.39458 50.8281 8.18364C50.9453 6.9727 51.2318 5.91802 51.6875 5.01958C52.1563 4.10812 52.7357 3.35291 53.4258 2.75396C54.1159 2.155 54.8906 1.70578 55.75 1.4063C56.6224 1.0938 57.5143 0.924528 58.4258 0.898486Z" fill="white"/>
<path d="M37.3125 1.13281C37.8724 1.1849 38.3672 1.22396 38.7969 1.25C39.2266 1.27604 39.5846 1.30208 39.8711 1.32812C40.2096 1.35417 40.4961 1.3737 40.7305 1.38672C40.9648 1.39974 41.2513 1.40625 41.5898 1.40625C41.8763 1.41927 42.2344 1.42578 42.6641 1.42578C43.0938 1.42578 43.6016 1.42578 44.1875 1.42578C43.8099 1.60807 43.5169 1.77734 43.3086 1.93359C43.1133 2.08984 42.9635 2.22656 42.8594 2.34375C42.7292 2.48698 42.651 2.61719 42.625 2.73438C42.612 2.83854 42.638 3.01432 42.7031 3.26172C42.7682 3.50911 42.8594 3.78906 42.9766 4.10156C43.0938 4.40104 43.237 4.72005 43.4062 5.05859C43.5755 5.39714 43.7513 5.70312 43.9336 5.97656C44.1289 6.23698 44.3242 6.45182 44.5195 6.62109C44.7148 6.79036 44.9036 6.86849 45.0859 6.85547C45.2682 6.84245 45.4896 6.75781 45.75 6.60156C46.0104 6.43229 46.2773 6.22396 46.5508 5.97656C46.8372 5.72917 47.1172 5.46224 47.3906 5.17578C47.6641 4.88932 47.9049 4.60938 48.1133 4.33594C48.3346 4.0625 48.5104 3.8151 48.6406 3.59375C48.7839 3.35938 48.8555 3.1901 48.8555 3.08594C48.8424 2.95573 48.7904 2.80599 48.6992 2.63672C48.6211 2.49349 48.4909 2.32422 48.3086 2.12891C48.1263 1.92057 47.8724 1.6862 47.5469 1.42578C48.6146 1.46484 49.3958 1.48438 49.8906 1.48438H50.6133H51.4336C51.7331 1.48438 52.1302 1.48438 52.625 1.48438C53.1198 1.47135 53.7383 1.45182 54.4805 1.42578C53.9727 1.76432 53.5299 2.07031 53.1523 2.34375C52.7878 2.60417 52.4753 2.82552 52.2148 3.00781C51.9154 3.22917 51.668 3.42448 51.4727 3.59375C51.2513 3.77604 50.9453 4.0625 50.5547 4.45312C50.2161 4.79167 49.7669 5.2474 49.207 5.82031C48.6471 6.38021 47.944 7.10938 47.0977 8.00781C46.9805 8.95833 46.9023 9.72656 46.8633 10.3125C46.8372 10.8984 46.8242 11.3607 46.8242 11.6992C46.8242 12.0898 46.8503 12.3828 46.9023 12.5781C46.9674 12.7344 47.0781 12.9167 47.2344 13.125C47.3646 13.3073 47.5469 13.5221 47.7812 13.7695C48.0286 14.0169 48.3542 14.2904 48.7578 14.5898C48.3281 14.4857 47.9245 14.4076 47.5469 14.3555C47.1823 14.3034 46.8568 14.2643 46.5703 14.2383C46.2318 14.1992 45.9258 14.1797 45.6523 14.1797C45.3659 14.1797 45.0273 14.1927 44.6367 14.2188C44.2982 14.2448 43.8945 14.2773 43.4258 14.3164C42.957 14.3555 42.4102 14.4141 41.7852 14.4922C42.1107 14.2708 42.3776 14.0495 42.5859 13.8281C42.7943 13.6068 42.957 13.4049 43.0742 13.2227C43.2174 13.0143 43.3216 12.819 43.3867 12.6367C43.4388 12.4284 43.4779 12.1289 43.5039 11.7383C43.5299 11.3997 43.5299 10.9505 43.5039 10.3906C43.4909 9.83073 43.4518 9.12109 43.3867 8.26172C42.6055 7.01172 41.9674 6.02865 41.4727 5.3125C40.9779 4.58333 40.5938 4.02995 40.3203 3.65234C39.9948 3.22266 39.7604 2.9362 39.6172 2.79297C39.487 2.6888 39.3112 2.55859 39.0898 2.40234C38.9076 2.25911 38.6732 2.08984 38.3867 1.89453C38.0872 1.6862 37.7292 1.43229 37.3125 1.13281Z" fill="white"/>
<path d="M27.7227 1.05469C28.1654 1.11979 28.556 1.16536 28.8945 1.19141C29.2461 1.21745 29.5391 1.24349 29.7734 1.26953C30.0469 1.29557 30.2812 1.30859 30.4766 1.30859H31.2383C31.7461 1.30859 32.5859 1.28906 33.7578 1.25C33.4714 1.34115 33.2305 1.47135 33.0352 1.64062C32.8529 1.8099 32.7031 1.98568 32.5859 2.16797C32.4427 2.3763 32.3385 2.59115 32.2734 2.8125C32.1953 3.08594 32.1237 3.45052 32.0586 3.90625C31.9935 4.3099 31.9284 4.83724 31.8633 5.48828C31.8112 6.13932 31.7591 6.95312 31.707 7.92969C32.2669 7.29167 32.7552 6.72526 33.1719 6.23047C33.6016 5.73568 33.9727 5.29948 34.2852 4.92188C34.5977 4.54427 34.8581 4.21875 35.0664 3.94531C35.2878 3.67188 35.4701 3.4375 35.6133 3.24219C35.9518 2.79948 36.1471 2.5 36.1992 2.34375C36.2122 2.2526 36.2057 2.14193 36.1797 2.01172C36.1536 1.90755 36.1146 1.78385 36.0625 1.64062C36.0104 1.48438 35.9323 1.3151 35.8281 1.13281C36.349 1.15885 36.7917 1.17839 37.1562 1.19141C37.5339 1.20443 37.8464 1.21745 38.0938 1.23047C38.3802 1.24349 38.6146 1.25 38.7969 1.25H39.6172C39.9167 1.25 40.3073 1.25 40.7891 1.25C41.2708 1.23698 41.8763 1.22396 42.6055 1.21094C42.1237 1.32812 41.668 1.48438 41.2383 1.67969C40.8086 1.875 40.4245 2.0638 40.0859 2.24609C39.6953 2.46745 39.3307 2.69531 38.9922 2.92969C38.6536 3.1901 38.276 3.49609 37.8594 3.84766C37.5078 4.14714 37.0977 4.51823 36.6289 4.96094C36.1602 5.39062 35.6523 5.89193 35.1055 6.46484C35.6914 7.61068 36.1992 8.55469 36.6289 9.29688C37.0716 10.026 37.4427 10.612 37.7422 11.0547C38.0807 11.5755 38.3672 11.9727 38.6016 12.2461C38.8359 12.4935 39.1094 12.7474 39.4219 13.0078C39.6823 13.2292 40.0078 13.4766 40.3984 13.75C40.7891 14.0104 41.2383 14.2643 41.7461 14.5117L36.1797 14.7852C36.2578 14.681 36.3034 14.5573 36.3164 14.4141C36.3424 14.2578 36.3555 14.1146 36.3555 13.9844C36.3555 13.8411 36.3424 13.6849 36.3164 13.5156C36.2643 13.3073 36.1276 12.9688 35.9062 12.5C35.724 12.0964 35.444 11.5299 35.0664 10.8008C34.6888 10.0586 34.168 9.08203 33.5039 7.87109L31.8438 9.60938C31.7786 10.026 31.7461 10.4036 31.7461 10.7422C31.7461 11.0807 31.7591 11.3607 31.7852 11.582C31.8242 11.8555 31.8763 12.0898 31.9414 12.2852C32.0195 12.4805 32.1302 12.7018 32.2734 12.9492C32.3906 13.1706 32.5469 13.431 32.7422 13.7305C32.9375 14.0299 33.1849 14.362 33.4844 14.7266C33.1849 14.6484 32.8854 14.5964 32.5859 14.5703C32.2865 14.5312 32.013 14.5052 31.7656 14.4922C31.4792 14.4792 31.2057 14.4857 30.9453 14.5117C30.6719 14.5378 30.3529 14.5768 29.9883 14.6289C29.6758 14.681 29.2917 14.7461 28.8359 14.8242C28.3802 14.9023 27.8594 15 27.2734 15.1172C27.5599 14.9479 27.7878 14.7656 27.957 14.5703C28.1263 14.375 28.263 14.1862 28.3672 14.0039C28.4844 13.7956 28.5625 13.5938 28.6016 13.3984C28.6276 13.2292 28.6471 12.8646 28.6602 12.3047C28.6862 11.7448 28.6992 11.0938 28.6992 10.3516C28.7122 9.59635 28.7122 8.80208 28.6992 7.96875C28.6862 7.13542 28.6732 6.35417 28.6602 5.625C28.6471 4.89583 28.6276 4.27734 28.6016 3.76953C28.5885 3.2487 28.5755 2.92969 28.5625 2.8125C28.5234 2.63021 28.4714 2.4349 28.4062 2.22656C28.3411 2.04427 28.25 1.85547 28.1328 1.66016C28.0286 1.45182 27.8919 1.25 27.7227 1.05469Z" fill="white"/>
<path d="M14.8711 1.26953C15.2617 1.34766 15.5938 1.40625 15.8672 1.44531C16.1406 1.48438 16.3685 1.51693 16.5508 1.54297C16.7591 1.56901 16.9349 1.58203 17.0781 1.58203C17.2214 1.58203 17.4167 1.57552 17.6641 1.5625C17.8854 1.54948 18.1654 1.54297 18.5039 1.54297C18.8424 1.52995 19.2721 1.51042 19.793 1.48438C19.4935 1.69271 19.2526 1.86849 19.0703 2.01172C18.888 2.15495 18.7513 2.27865 18.6602 2.38281C18.543 2.5 18.4714 2.59766 18.4453 2.67578C18.4193 2.72786 18.3932 2.92318 18.3672 3.26172C18.3411 3.58724 18.3151 4.00391 18.2891 4.51172C18.276 5.00651 18.276 5.56641 18.2891 6.19141C18.3021 6.80339 18.3346 7.42839 18.3867 8.06641C18.4518 8.70443 18.543 9.32292 18.6602 9.92188C18.7773 10.5078 18.9336 11.0221 19.1289 11.4648C19.3372 11.9076 19.5846 12.2526 19.8711 12.5C20.1706 12.7474 20.5286 12.8385 20.9453 12.7734C21.4922 12.6953 21.9349 12.4284 22.2734 11.9727C22.612 11.5169 22.8659 10.9635 23.0352 10.3125C23.2174 9.66146 23.3281 8.96484 23.3672 8.22266C23.4193 7.46745 23.4258 6.76432 23.3867 6.11328C23.3607 5.44922 23.3086 4.8763 23.2305 4.39453C23.1523 3.91276 23.0807 3.61328 23.0156 3.49609C22.9375 3.36589 22.8333 3.21615 22.7031 3.04688C22.599 2.90365 22.4622 2.74089 22.293 2.55859C22.1237 2.36328 21.9284 2.15495 21.707 1.93359C22.1107 1.94661 22.4753 1.95964 22.8008 1.97266C23.1263 1.97266 23.3997 1.97917 23.6211 1.99219C23.8815 2.00521 24.1159 2.01823 24.3242 2.03125C24.5326 2.04427 24.793 2.0638 25.1055 2.08984C25.3659 2.11589 25.6979 2.14193 26.1016 2.16797C26.5182 2.19401 27.013 2.23307 27.5859 2.28516C27.3646 2.33724 27.1823 2.40885 27.0391 2.5C26.9089 2.59115 26.8047 2.6888 26.7266 2.79297C26.6354 2.91016 26.5703 3.02734 26.5312 3.14453C26.4922 3.2487 26.4596 3.5612 26.4336 4.08203C26.4206 4.58984 26.3945 5.20833 26.3555 5.9375C26.3294 6.65365 26.2839 7.4349 26.2188 8.28125C26.1536 9.11458 26.0495 9.90885 25.9062 10.6641C25.776 11.4193 25.6003 12.0898 25.3789 12.6758C25.1706 13.2617 24.8971 13.6654 24.5586 13.8867C24.0638 14.2122 23.543 14.4466 22.9961 14.5898C22.4492 14.7201 21.8958 14.7917 21.3359 14.8047C20.776 14.8047 20.2227 14.7591 19.6758 14.668C19.1419 14.5638 18.6276 14.4401 18.1328 14.2969C17.625 14.1406 17.2018 13.7891 16.8633 13.2422C16.5378 12.6953 16.2773 12.0508 16.082 11.3086C15.8997 10.5534 15.763 9.74609 15.6719 8.88672C15.5938 8.01432 15.5417 7.17448 15.5156 6.36719C15.5026 5.5599 15.5026 4.83073 15.5156 4.17969C15.5417 3.51562 15.5612 3.01432 15.5742 2.67578C15.5742 2.50651 15.5482 2.34375 15.4961 2.1875C15.457 2.04427 15.3854 1.89453 15.2812 1.73828C15.1901 1.56901 15.0534 1.41276 14.8711 1.26953Z" fill="white"/>
<path d="M5.16406 1.77734C5.8151 1.81641 6.36198 1.84896 6.80469 1.875C7.26042 1.88802 7.63802 1.90104 7.9375 1.91406C8.27604 1.92708 8.5625 1.92708 8.79688 1.91406C9.03125 1.90104 9.35026 1.86849 9.75391 1.81641C10.0924 1.77734 10.5417 1.71875 11.1016 1.64062C11.6745 1.54948 12.3841 1.43229 13.2305 1.28906C12.931 1.58854 12.6966 1.86198 12.5273 2.10938C12.3711 2.34375 12.2474 2.54557 12.1562 2.71484C12.0521 2.92318 11.9805 3.09896 11.9414 3.24219C11.9154 3.3724 11.9414 3.69792 12.0195 4.21875C12.0977 4.73958 12.2083 5.35807 12.3516 6.07422C12.4948 6.77734 12.651 7.53255 12.8203 8.33984C12.9896 9.13411 13.1589 9.88281 13.3281 10.5859C13.4974 11.276 13.6471 11.8685 13.7773 12.3633C13.9206 12.8451 14.0247 13.1315 14.0898 13.2227C14.2852 13.4961 14.4089 13.6784 14.4609 13.7695C14.513 13.8477 14.6042 13.9193 14.7344 13.9844C14.7865 14.0104 14.8711 14.0495 14.9883 14.1016C15.0924 14.1536 15.2292 14.2188 15.3984 14.2969C15.5807 14.375 15.8086 14.4661 16.082 14.5703C15.5742 14.5964 15.138 14.6159 14.7734 14.6289C14.4089 14.6289 14.1094 14.6354 13.875 14.6484C13.6016 14.6615 13.3672 14.6745 13.1719 14.6875C12.9766 14.6875 12.7422 14.7005 12.4688 14.7266C12.2344 14.7526 11.9284 14.7786 11.5508 14.8047C11.1862 14.8307 10.7565 14.8568 10.2617 14.8828C10.5221 14.7005 10.7305 14.5378 10.8867 14.3945C11.056 14.2383 11.1862 14.1081 11.2773 14.0039C11.3815 13.8737 11.4531 13.7565 11.4922 13.6523C11.5182 13.5352 11.5378 13.3594 11.5508 13.125C11.5638 12.9167 11.5638 12.6432 11.5508 12.3047C11.5378 11.9531 11.5052 11.4974 11.4531 10.9375L6.31641 11.4648C6.1862 11.6862 6.08854 11.8815 6.02344 12.0508C5.95833 12.207 5.91276 12.3438 5.88672 12.4609C5.84766 12.6042 5.83464 12.7214 5.84766 12.8125C5.8737 12.9167 5.91927 13.0404 5.98438 13.1836C6.04948 13.3138 6.14062 13.4701 6.25781 13.6523C6.38802 13.8216 6.57682 14.0234 6.82422 14.2578C6.4987 14.2448 6.16667 14.2383 5.82812 14.2383C5.48958 14.2383 5.17708 14.2448 4.89062 14.2578C4.55208 14.2708 4.22005 14.2839 3.89453 14.2969C3.56901 14.3099 3.19792 14.3294 2.78125 14.3555C2.42969 14.3815 2.01953 14.4141 1.55078 14.4531C1.06901 14.4792 0.554688 14.5182 0.0078125 14.5703C0.346354 14.4141 0.632812 14.2578 0.867188 14.1016C1.10156 13.9323 1.29688 13.776 1.45312 13.6328C1.63542 13.4766 1.79167 13.3268 1.92188 13.1836C2.01302 13.0534 2.19531 12.7539 2.46875 12.2852C2.74219 11.8034 3.04818 11.237 3.38672 10.5859C3.73828 9.9349 4.10286 9.23828 4.48047 8.49609C4.87109 7.75391 5.22266 7.05729 5.53516 6.40625C5.84766 5.74219 6.10156 5.16927 6.29688 4.6875C6.49219 4.20573 6.58984 3.89323 6.58984 3.75C6.5638 3.58073 6.4987 3.39193 6.39453 3.18359C6.30339 3.0013 6.16016 2.79297 5.96484 2.55859C5.78255 2.32422 5.51562 2.0638 5.16406 1.77734ZM11.2188 9.49219C11.1406 9.03646 11.069 8.64583 11.0039 8.32031C10.9388 7.98177 10.8867 7.70182 10.8477 7.48047C10.7956 7.22005 10.7565 6.99219 10.7305 6.79688C10.6914 6.61458 10.6458 6.38021 10.5938 6.09375C10.5417 5.84635 10.4766 5.54036 10.3984 5.17578C10.3333 4.79818 10.2487 4.34896 10.1445 3.82812C9.40234 5.3125 8.82292 6.46484 8.40625 7.28516C8.0026 8.09245 7.70964 8.6849 7.52734 9.0625C7.30599 9.50521 7.18229 9.76562 7.15625 9.84375L11.2188 9.49219Z" fill="white"/>
</svg>
