<svg width="29" height="15" viewBox="0 0 29 15" fill="none" xmlns="http://www.w3.org/2000/svg">
<path d="M22.5078 0.898486C23.3412 0.885465 24.0248 1.03521 24.5586 1.34771C25.1055 1.66021 25.5482 2.0313 25.8867 2.46099C26.2253 2.89067 26.4857 3.32687 26.668 3.76958C26.8503 4.19927 26.9935 4.53781 27.0977 4.78521C27.1237 4.85031 27.1758 4.93494 27.2539 5.03911C27.319 5.13026 27.4102 5.24093 27.5274 5.37114C27.6576 5.48833 27.8203 5.62505 28.0156 5.7813C27.612 5.79432 27.2539 5.80734 26.9414 5.82036C26.6289 5.82036 26.362 5.82687 26.1406 5.83989C25.8932 5.85291 25.6719 5.86593 25.4766 5.87895C25.2813 5.89198 25.0404 5.91151 24.7539 5.93755C24.4935 5.96359 24.1745 5.98963 23.7969 6.01567C23.4193 6.04172 22.957 6.08078 22.4102 6.13286C22.7357 5.74224 22.9896 5.39718 23.1719 5.0977C23.3672 4.7852 23.5104 4.51177 23.6016 4.27739C23.7057 4.03 23.7643 3.81515 23.7774 3.63286C23.8034 3.45057 23.7969 3.29432 23.7578 3.16411C23.6797 2.86463 23.4779 2.64979 23.1524 2.51958C22.2149 2.25916 21.3945 2.4675 20.6914 3.14458C20.0013 3.80864 19.5065 4.90239 19.207 6.42583C19.0638 7.18104 18.9271 7.9688 18.7969 8.78911C18.6797 9.5964 18.6341 10.3386 18.6602 11.0157C18.6862 11.6797 18.8164 12.2201 19.0508 12.6368C19.2852 13.0534 19.6888 13.2487 20.2617 13.2227C20.8216 13.1967 21.2969 13.1055 21.6875 12.9493C22.0781 12.78 22.3906 12.5847 22.625 12.3633C22.8594 12.129 23.0221 11.8816 23.1133 11.6211C23.2175 11.3477 23.2565 11.0938 23.2305 10.8594C23.1784 10.6771 23.0417 10.4818 22.8203 10.2735C22.625 10.0912 22.332 9.88937 21.9414 9.66802C21.5508 9.43364 20.9909 9.19276 20.2617 8.94536C20.9518 8.9063 21.5182 8.88026 21.9609 8.86724C22.4167 8.84119 22.7748 8.81515 23.0352 8.78911C23.3477 8.76307 23.5886 8.74354 23.7578 8.73052C23.9141 8.7175 24.1419 8.70448 24.4414 8.69145C24.7018 8.67843 25.0339 8.67192 25.4375 8.67192C25.8542 8.67192 26.375 8.66541 27 8.65239C26.7656 8.88677 26.5833 9.10161 26.4531 9.29692C26.388 9.40109 26.3294 9.49224 26.2774 9.57036C26.2253 9.70057 26.2057 9.9675 26.2188 10.3711C26.2188 10.7097 26.2448 11.211 26.2969 11.875C26.349 12.5261 26.4466 13.418 26.5899 14.5508L23.9922 14.9024L24.1094 12.2657C23.8099 12.9818 23.4323 13.5157 22.9766 13.8672C22.5339 14.2188 22.1107 14.4662 21.707 14.6094C21.2253 14.7787 20.724 14.8568 20.2031 14.8438C19.5261 14.7787 18.849 14.6224 18.1719 14.375C17.4948 14.1277 16.8958 13.75 16.375 13.2422C15.8542 12.7214 15.4505 12.0508 15.1641 11.2305C14.8906 10.4102 14.806 9.39458 14.9102 8.18364C15.0274 6.9727 15.3138 5.91802 15.7695 5.01958C16.2383 4.10812 16.8177 3.35291 17.5078 2.75396C18.1979 2.155 18.9727 1.70578 19.832 1.4063C20.7044 1.0938 21.5964 0.924528 22.5078 0.898486Z" fill="white"/>
<path d="M5.16406 1.77734C5.8151 1.81641 6.36198 1.84896 6.80469 1.875C7.26042 1.88802 7.63802 1.90104 7.9375 1.91406C8.27604 1.92708 8.5625 1.92708 8.79688 1.91406C9.03125 1.90104 9.35026 1.86849 9.75391 1.81641C10.0924 1.77734 10.5417 1.71875 11.1016 1.64062C11.6745 1.54948 12.3841 1.43229 13.2305 1.28906C12.931 1.58854 12.6966 1.86198 12.5273 2.10938C12.3711 2.34375 12.2474 2.54557 12.1562 2.71484C12.0521 2.92318 11.9805 3.09896 11.9414 3.24219C11.9154 3.3724 11.9414 3.69792 12.0195 4.21875C12.0977 4.73958 12.2083 5.35807 12.3516 6.07422C12.4948 6.77734 12.651 7.53255 12.8203 8.33984C12.9896 9.13411 13.1589 9.88281 13.3281 10.5859C13.4974 11.276 13.6471 11.8685 13.7773 12.3633C13.9206 12.8451 14.0247 13.1315 14.0898 13.2227C14.2852 13.4961 14.4089 13.6784 14.4609 13.7695C14.513 13.8477 14.6042 13.9193 14.7344 13.9844C14.7865 14.0104 14.8711 14.0495 14.9883 14.1016C15.0924 14.1536 15.2292 14.2188 15.3984 14.2969C15.5807 14.375 15.8086 14.4661 16.082 14.5703C15.5742 14.5964 15.138 14.6159 14.7734 14.6289C14.4089 14.6289 14.1094 14.6354 13.875 14.6484C13.6016 14.6615 13.3672 14.6745 13.1719 14.6875C12.9766 14.6875 12.7422 14.7005 12.4688 14.7266C12.2344 14.7526 11.9284 14.7786 11.5508 14.8047C11.1862 14.8307 10.7565 14.8568 10.2617 14.8828C10.5221 14.7005 10.7305 14.5378 10.8867 14.3945C11.056 14.2383 11.1862 14.1081 11.2773 14.0039C11.3815 13.8737 11.4531 13.7565 11.4922 13.6523C11.5182 13.5352 11.5378 13.3594 11.5508 13.125C11.5638 12.9167 11.5638 12.6432 11.5508 12.3047C11.5378 11.9531 11.5052 11.4974 11.4531 10.9375L6.31641 11.4648C6.1862 11.6862 6.08854 11.8815 6.02344 12.0508C5.95833 12.207 5.91276 12.3438 5.88672 12.4609C5.84766 12.6042 5.83464 12.7214 5.84766 12.8125C5.8737 12.9167 5.91927 13.0404 5.98438 13.1836C6.04948 13.3138 6.14062 13.4701 6.25781 13.6523C6.38802 13.8216 6.57682 14.0234 6.82422 14.2578C6.4987 14.2448 6.16667 14.2383 5.82812 14.2383C5.48958 14.2383 5.17708 14.2448 4.89062 14.2578C4.55208 14.2708 4.22005 14.2839 3.89453 14.2969C3.56901 14.3099 3.19792 14.3294 2.78125 14.3555C2.42969 14.3815 2.01953 14.4141 1.55078 14.4531C1.06901 14.4792 0.554688 14.5182 0.0078125 14.5703C0.346354 14.4141 0.632812 14.2578 0.867188 14.1016C1.10156 13.9323 1.29688 13.776 1.45312 13.6328C1.63542 13.4766 1.79167 13.3268 1.92188 13.1836C2.01302 13.0534 2.19531 12.7539 2.46875 12.2852C2.74219 11.8034 3.04818 11.237 3.38672 10.5859C3.73828 9.9349 4.10286 9.23828 4.48047 8.49609C4.87109 7.75391 5.22266 7.05729 5.53516 6.40625C5.84766 5.74219 6.10156 5.16927 6.29688 4.6875C6.49219 4.20573 6.58984 3.89323 6.58984 3.75C6.5638 3.58073 6.4987 3.39193 6.39453 3.18359C6.30339 3.0013 6.16016 2.79297 5.96484 2.55859C5.78255 2.32422 5.51562 2.0638 5.16406 1.77734ZM11.2188 9.49219C11.1406 9.03646 11.069 8.64583 11.0039 8.32031C10.9388 7.98177 10.8867 7.70182 10.8477 7.48047C10.7956 7.22005 10.7565 6.99219 10.7305 6.79688C10.6914 6.61458 10.6458 6.38021 10.5938 6.09375C10.5417 5.84635 10.4766 5.54036 10.3984 5.17578C10.3333 4.79818 10.2487 4.34896 10.1445 3.82812C9.40234 5.3125 8.82292 6.46484 8.40625 7.28516C8.0026 8.09245 7.70964 8.6849 7.52734 9.0625C7.30599 9.50521 7.18229 9.76562 7.15625 9.84375L11.2188 9.49219Z" fill="white"/>
</svg>
